HIERARCHY
ROOT mixamorig:Hips
{
	OFFSET 0.000000 77.627144 7.190781
	CHANNELS 6 Xposition Yposition Zposition Xrotation Yrotation Zrotation
	JOINT mixamorig:Spine
	{
		OFFSET 0.000000 14.685707 -1.734714
		CHANNELS 3 Xrotation Yrotation Zrotation
		JOINT mixamorig:Spine1
		{
			OFFSET 0.000000 17.133331 -2.023833
			CHANNELS 3 Xrotation Yrotation Zrotation
			JOINT mixamorig:Spine2
			{
				OFFSET 0.000000 19.580948 -2.312953
				CHANNELS 3 Xrotation Yrotation Zrotation
				JOINT mixamorig:Neck
				{
					OFFSET 0.000000 22.028564 -2.602070
					CHANNELS 3 Xrotation Yrotation Zrotation
					JOINT mixamorig:Head
					{
						OFFSET 0.000000 7.772293 1.167654
						CHANNELS 3 Xrotation Yrotation Zrotation
						JOINT mixamorig:HeadTop_End
						{
							OFFSET 0.000000 26.518158 3.983897
							CHANNELS 3 Xrotation Yrotation Zrotation
							End Site
							{
								OFFSET 0.000000 26.815750 0.000000
							}
						}
					}
				}
				JOINT mixamorig:LeftShoulder
				{
					OFFSET 11.646637 18.513367 -2.583829
					CHANNELS 3 Xrotation Yrotation Zrotation
					JOINT mixamorig:LeftArm
					{
						OFFSET 23.494797 -6.787735 0.036483
						CHANNELS 3 Xrotation Yrotation Zrotation
						JOINT mixamorig:LeftForeArm
						{
							OFFSET 22.628841 -2.236465 0.895561
							CHANNELS 3 Xrotation Yrotation Zrotation
							JOINT mixamorig:LeftHand
							{
								OFFSET 32.235813 0.214081 0.341628
								CHANNELS 3 Xrotation Yrotation Zrotation
								JOINT mixamorig:LeftHandThumb1
								{
									OFFSET 4.043732 -2.301453 4.675424
									CHANNELS 3 Xrotation Yrotation Zrotation
									JOINT mixamorig:LeftHandThumb2
									{
										OFFSET 3.235001 -1.841141 3.740334
										CHANNELS 3 Xrotation Yrotation Zrotation
										JOINT mixamorig:LeftHandThumb3
										{
											OFFSET 4.136284 -1.355438 2.884997
											CHANNELS 3 Xrotation Yrotation Zrotation
											JOINT mixamorig:LeftHandThumb4
											{
												OFFSET 3.443222 -1.440781 1.895251
												CHANNELS 3 Xrotation Yrotation Zrotation
												End Site
												{
													OFFSET 3.082619 -1.455811 2.429330
												}
											}
										}
									}
								}
								JOINT mixamorig:LeftHandIndex1
								{
									OFFSET 12.534279 0.552322 5.370454
									CHANNELS 3 Xrotation Yrotation Zrotation
									JOINT mixamorig:LeftHandIndex2
									{
										OFFSET 4.462021 -0.042068 -0.222766
										CHANNELS 3 Xrotation Yrotation Zrotation
										JOINT mixamorig:LeftHandIndex3
										{
											OFFSET 4.426414 -0.140015 -0.221126
											CHANNELS 3 Xrotation Yrotation Zrotation
											JOINT mixamorig:LeftHandIndex4
											{
												OFFSET 3.584976 -0.033737 -0.180877
												CHANNELS 3 Xrotation Yrotation Zrotation
												End Site
												{
													OFFSET 3.584984 -0.033707 -0.180676
												}
											}
										}
									}
								}
								JOINT mixamorig:LeftHandMiddle1
								{
									OFFSET 12.067444 0.830978 1.411757
									CHANNELS 3 Xrotation Yrotation Zrotation
									JOINT mixamorig:LeftHandMiddle2
									{
										OFFSET 5.488625 0.110443 -0.140360
										CHANNELS 3 Xrotation Yrotation Zrotation
										JOINT mixamorig:LeftHandMiddle3
										{
											OFFSET 5.193268 -0.285706 -0.132956
											CHANNELS 3 Xrotation Yrotation Zrotation
											JOINT mixamorig:LeftHandMiddle4
											{
												OFFSET 4.443779 -0.316895 -0.113542
												CHANNELS 3 Xrotation Yrotation Zrotation
												End Site
												{
													OFFSET 4.443962 -0.316620 -0.107084
												}
											}
										}
									}
								}
								JOINT mixamorig:LeftHandRing1
								{
									OFFSET 12.202324 0.602158 -2.428782
									CHANNELS 3 Xrotation Yrotation Zrotation
									JOINT mixamorig:LeftHandRing2
									{
										OFFSET 4.681709 0.293594 -0.070412
										CHANNELS 3 Xrotation Yrotation Zrotation
										JOINT mixamorig:LeftHandRing3
										{
											OFFSET 4.517784 0.001785 -0.067170
											CHANNELS 3 Xrotation Yrotation Zrotation
											JOINT mixamorig:LeftHandRing4
											{
												OFFSET 3.536186 -0.473984 -0.050865
												CHANNELS 3 Xrotation Yrotation Zrotation
												End Site
												{
													OFFSET 3.536438 -0.473450 -0.036327
												}
											}
										}
									}
								}
								JOINT mixamorig:LeftHandPinky1
								{
									OFFSET 11.261032 -0.021225 -5.740205
									CHANNELS 3 Xrotation Yrotation Zrotation
									JOINT mixamorig:LeftHandPinky2
									{
										OFFSET 4.446136 0.226913 -0.056313
										CHANNELS 3 Xrotation Yrotation Zrotation
										JOINT mixamorig:LeftHandPinky3
										{
											OFFSET 3.536148 0.035980 -0.044635
											CHANNELS 3 Xrotation Yrotation Zrotation
											JOINT mixamorig:LeftHandPinky4
											{
												OFFSET 2.822449 0.069366 -0.035670
												CHANNELS 3 Xrotation Yrotation Zrotation
												End Site
												{
													OFFSET 2.822449 0.069397 -0.035034
												}
											}
										}
									}
								}
							}
						}
					}
				}
				JOINT mixamorig:RightShoulder
				{
					OFFSET -11.646637 18.513367 -2.620312
					CHANNELS 3 Xrotation Yrotation Zrotation
					JOINT mixamorig:RightArm
					{
						OFFSET -23.494804 -6.787735 -0.036485
						CHANNELS 3 Xrotation Yrotation Zrotation
						JOINT mixamorig:RightForeArm
						{
							OFFSET -22.628826 -2.236481 0.960591
							CHANNELS 3 Xrotation Yrotation Zrotation
							JOINT mixamorig:RightHand
							{
								OFFSET -32.235806 0.214096 0.317908
								CHANNELS 3 Xrotation Yrotation Zrotation
								JOINT mixamorig:RightHandThumb1
								{
									OFFSET -4.056908 -2.304855 4.721249
									CHANNELS 3 Xrotation Yrotation Zrotation
									JOINT mixamorig:RightHandThumb2
									{
										OFFSET -3.245529 -1.843887 3.777003
										CHANNELS 3 Xrotation Yrotation Zrotation
										JOINT mixamorig:RightHandThumb3
										{
											OFFSET -4.153908 -1.359879 2.907515
											CHANNELS 3 Xrotation Yrotation Zrotation
											JOINT mixamorig:RightHandThumb4
											{
												OFFSET -3.491310 -1.375549 1.529044
												CHANNELS 3 Xrotation Yrotation Zrotation
												End Site
												{
													OFFSET -3.035126 -1.400162 2.290608
												}
											}
										}
									}
								}
								JOINT mixamorig:RightHandIndex1
								{
									OFFSET -12.331047 0.757294 5.317495
									CHANNELS 3 Xrotation Yrotation Zrotation
									JOINT mixamorig:RightHandIndex2
									{
										OFFSET -4.758568 -0.224289 -0.035605
										CHANNELS 3 Xrotation Yrotation Zrotation
										JOINT mixamorig:RightHandIndex3
										{
											OFFSET -4.415932 -0.181503 -0.033052
											CHANNELS 3 Xrotation Yrotation Zrotation
											JOINT mixamorig:RightHandIndex4
											{
												OFFSET -3.678474 0.414856 -0.027373
												CHANNELS 3 Xrotation Yrotation Zrotation
												End Site
												{
													OFFSET -3.678375 0.414001 -0.046045
												}
											}
										}
									}
								}
								JOINT mixamorig:RightHandMiddle1
								{
									OFFSET -12.051239 0.663742 1.548264
									CHANNELS 3 Xrotation Yrotation Zrotation
									JOINT mixamorig:RightHandMiddle2
									{
										OFFSET -5.374817 0.301971 -0.166537
										CHANNELS 3 Xrotation Yrotation Zrotation
										JOINT mixamorig:RightHandMiddle3
										{
											OFFSET -5.310471 -0.301758 -0.164593
											CHANNELS 3 Xrotation Yrotation Zrotation
											JOINT mixamorig:RightHandMiddle4
											{
												OFFSET -4.485832 -0.342514 -0.139207
												CHANNELS 3 Xrotation Yrotation Zrotation
												End Site
												{
													OFFSET -4.486198 -0.342010 -0.127963
												}
											}
										}
									}
								}
								JOINT mixamorig:RightHandRing1
								{
									OFFSET -12.195183 0.742325 -2.381488
									CHANNELS 3 Xrotation Yrotation Zrotation
									JOINT mixamorig:RightHandRing2
									{
										OFFSET -4.583191 0.034424 -0.012763
										CHANNELS 3 Xrotation Yrotation Zrotation
										JOINT mixamorig:RightHandRing3
										{
											OFFSET -4.612793 0.026199 -0.012632
											CHANNELS 3 Xrotation Yrotation Zrotation
											JOINT mixamorig:RightHandRing4
											{
												OFFSET -3.314957 -0.541855 -0.006643
												CHANNELS 3 Xrotation Yrotation Zrotation
												End Site
												{
													OFFSET -3.315063 -0.541092 0.010116
												}
											}
										}
									}
								}
								JOINT mixamorig:RightHandPinky1
								{
									OFFSET -11.332825 -0.054398 -5.574547
									CHANNELS 3 Xrotation Yrotation Zrotation
									JOINT mixamorig:RightHandPinky2
									{
										OFFSET -4.462639 0.300003 -0.206312
										CHANNELS 3 Xrotation Yrotation Zrotation
										JOINT mixamorig:RightHandPinky3
										{
											OFFSET -3.493774 0.049591 -0.161451
											CHANNELS 3 Xrotation Yrotation Zrotation
											JOINT mixamorig:RightHandPinky4
											{
												OFFSET -2.793701 0.056946 -0.129098
												CHANNELS 3 Xrotation Yrotation Zrotation
												End Site
												{
													OFFSET -2.793793 0.057053 -0.126857
												}
											}
										}
									}
								}
							}
						}
					}
				}
			}
		}
	}
	JOINT mixamorig:LeftUpLeg
	{
		OFFSET 13.580879 -8.149223 -1.796077
		CHANNELS 3 Xrotation Yrotation Zrotation
		JOINT mixamorig:LeftLeg
		{
			OFFSET 3.676140 -35.802425 -2.676071
			CHANNELS 3 Xrotation Yrotation Zrotation
			JOINT mixamorig:LeftFoot
			{
				OFFSET -0.369089 -26.709160 -2.057140
				CHANNELS 3 Xrotation Yrotation Zrotation
				JOINT mixamorig:LeftToeBase
				{
					OFFSET -1.192477 -6.581660 13.403662
					CHANNELS 3 Xrotation Yrotation Zrotation
					JOINT mixamorig:LeftToe_End
					{
						OFFSET -0.351336 -0.163913 5.937977
						CHANNELS 3 Xrotation Yrotation Zrotation
						End Site
						{
							OFFSET -0.351338 -0.163913 5.937977
						}
					}
				}
			}
		}
	}
	JOINT mixamorig:RightUpLeg
	{
		OFFSET -13.580879 -8.149223 -2.255285
		CHANNELS 3 Xrotation Yrotation Zrotation
		JOINT mixamorig:RightLeg
		{
			OFFSET -3.676140 -35.802425 -2.316821
			CHANNELS 3 Xrotation Yrotation Zrotation
			JOINT mixamorig:RightFoot
			{
				OFFSET 0.369059 -26.709040 -2.090143
				CHANNELS 3 Xrotation Yrotation Zrotation
				JOINT mixamorig:RightToeBase
				{
					OFFSET 1.192393 -6.582436 13.372205
					CHANNELS 3 Xrotation Yrotation Zrotation
					JOINT mixamorig:RightToe_End
					{
						OFFSET 0.351307 -0.164255 5.913618
						CHANNELS 3 Xrotation Yrotation Zrotation
						End Site
						{
							OFFSET 0.351309 -0.164255 5.913618
						}
					}
				}
			}
		}
	}
}
MOTION
Frames: 4
Frame Time: 0.016667
0.863346 77.228333 1.834730 -3.759007 -5.244906 -3.093467 3.315959 1.526220 2.060538 1.146036 0.329157 1.552970 1.123712 0.356192 1.550934 5.622659 -0.077171 0.463898 -7.551143 1.374727 -0.084354 -0.000000 0.000000 0.000000 1.046124 -17.446012 -11.894616 5.984134 -19.175172 -63.827722 -0.155155 -3.100655 -6.025190 -29.868984 4.248838 -10.051959 1.820841 13.365468 5.892918 8.118166 14.927063 10.965618 -18.227063 -3.951756 10.607589 -0.000000 0.000003 0.000002 0.217436 -10.809227 -3.069030 -0.635920 1.094133 -16.138642 -0.422067 0.469741 -9.325612 -0.000001 0.000001 0.000001 -0.279578 -6.148097 -13.063908 -0.205624 1.001451 -13.157465 -0.220405 1.076166 -17.539504 0.000000 -0.000001 -0.000002 -0.042544 -4.814693 -20.940826 -0.120907 1.159627 -17.411923 0.003511 0.986234 -10.273235 0.000000 0.000001 0.000002 0.451184 -2.950434 -26.258782 -0.092877 0.970864 -15.125106 -0.095571 0.925799 -17.385523 -0.000000 0.000000 -0.000001 1.189522 15.344136 14.284924 15.224493 26.326739 52.568886 -0.688950 8.517578 6.071607 -16.035537 -6.730970 9.809986 1.256930 -10.518247 -4.844328 8.985687 -19.342710 -9.600457 -19.995268 8.718141 -13.191500 -0.000002 0.000004 0.000005 0.129566 9.366694 0.910106 -0.033044 -0.505694 17.804573 -0.098176 -0.249878 16.869046 -0.000001 -0.000001 0.000002 -0.288987 7.724752 15.221959 -0.305450 -0.382848 11.017903 -0.450914 -0.441240 17.376792 -0.000002 -0.000001 -0.000004 -0.094191 5.527155 17.908835 0.034966 -0.525974 20.900468 0.053436 -0.482893 8.338919 -0.000002 -0.000001 -0.000001 -0.418234 6.349210 27.420136 -0.633024 -0.403817 14.440224 -0.730678 -0.416539 16.914321 -0.000000 0.000001 0.000002 -14.509460 13.839799 8.585372 20.648919 2.841997 4.110071 -3.495408 1.016758 -5.521735 -4.933171 0.000008 -0.000006 0.000001 0.000000 -0.000000 3.204286 -10.131247 5.379609 2.762045 -9.890665 -3.312613 -2.158083 -1.523529 0.860399 -7.273502 0.000020 0.000009 0.000001 0.000002 0.000001 
0.781255 77.192169 1.888908 -3.697324 -5.103540 -2.808981 3.300397 1.529251 1.911172 1.142600 0.326736 1.493549 1.120641 0.353165 1.491650 5.512578 -0.055568 0.450594 -7.604082 1.429832 -0.080160 -0.000000 -0.000000 -0.000000 1.044432 -17.441387 -11.908378 6.013522 -18.712657 -63.572095 -0.173837 -3.289274 -6.025934 -28.946509 4.114149 -10.055462 1.819756 13.225900 5.953027 8.109799 14.386904 10.579036 -18.285975 -4.047877 10.820382 0.000000 0.000001 -0.000005 0.297524 -10.825863 -2.731572 -0.651882 1.130770 -16.672051 -0.463345 0.538024 -10.373796 -0.000000 0.000000 -0.000002 -0.292960 -6.114888 -13.474710 -0.213530 1.055417 -14.062274 -0.220829 1.082782 -17.650332 -0.000001 -0.000001 -0.000004 -0.068401 -4.793015 -21.953148 -0.119795 1.189346 -17.946148 0.003706 0.990689 -10.356560 -0.000001 0.000001 -0.000001 0.349963 -2.872608 -27.150188 -0.091091 1.022420 -16.044359 -0.092171 0.981169 -18.371044 0.000000 0.000000 -0.000001 1.196938 15.319935 14.241509 15.078971 25.855924 52.521388 -0.684178 8.470262 6.070965 -15.213543 -6.655665 9.801693 1.256900 -10.518184 -4.844348 8.985666 -19.342452 -9.600343 -19.995264 8.718141 -13.191571 0.000006 0.000004 0.000007 0.120709 9.343911 1.548310 -0.029855 -0.536985 18.883465 -0.100010 -0.283465 17.980808 -0.000002 0.000001 0.000001 -0.317167 7.704256 15.810365 -0.331937 -0.409902 12.068865 -0.476720 -0.474630 18.557670 -0.000000 0.000002 0.000000 -0.098240 5.507145 18.452258 0.041892 -0.552152 21.979527 0.060292 -0.511231 9.522481 0.000000 0.000002 -0.000001 -0.423749 6.332932 27.972329 -0.675315 -0.435222 15.493823 -0.774216 -0.451833 18.033289 0.000000 -0.000001 -0.000003 -14.373954 13.915009 8.309629 20.332534 2.765197 4.106659 -3.314403 0.935721 -5.531921 -4.913019 -0.000008 -0.000007 -0.000000 -0.000001 -0.000001 1.681035 -10.109442 4.899266 6.235069 -10.197698 -3.295178 -4.130524 -1.654066 1.147752 -7.364128 0.000004 0.000012 0.000001 0.000000 0.000000 
0.691241 77.135147 1.943685 -3.649688 -4.954912 -2.494732 3.291427 1.529743 1.740536 1.139323 0.323328 1.431719 1.117753 0.349070 1.429961 5.443588 -0.027928 0.433869 -7.696952 1.507728 -0.085506 -0.000000 -0.000000 0.000000 1.044923 -17.434246 -11.913152 6.109171 -18.206716 -63.291190 -0.208274 -3.636741 -6.027539 -27.957844 4.070612 -10.060253 1.818713 13.091852 6.010806 8.100950 13.795123 10.203300 -18.346942 -4.188412 11.022091 0.000000 0.000004 -0.000001 0.383014 -10.853212 -2.297779 -0.665823 1.163380 -17.144953 -0.501231 0.603364 -11.366198 -0.000001 0.000000 0.000000 -0.303962 -6.085471 -13.825551 -0.220061 1.105291 -14.896706 -0.221119 1.087541 -17.730025 -0.000002 -0.000001 0.000001 -0.093793 -4.771507 -22.932362 -0.118554 1.215691 -18.419789 0.003828 0.993512 -10.409428 0.000000 -0.000000 -0.000000 0.253272 -2.791543 -27.999158 -0.088402 1.074995 -16.982376 -0.087723 1.037576 -19.376260 -0.000000 -0.000001 -0.000002 1.202631 15.299263 14.209933 14.957027 25.383191 52.449610 -0.681918 8.447685 6.070652 -14.383870 -6.543550 9.761376 1.256924 -10.518246 -4.844330 8.985708 -19.342927 -9.600456 -19.995273 8.718078 -13.191518 0.000002 -0.000001 0.000002 0.105333 9.319076 2.274761 -0.025872 -0.569739 20.015171 -0.101211 -0.317320 19.101042 0.000002 -0.000001 -0.000000 -0.345939 7.683388 16.414770 -0.358298 -0.437835 13.134916 -0.504004 -0.511548 19.842381 -0.000001 0.000003 0.000004 -0.100226 5.484151 18.953217 0.049694 -0.579463 23.111402 0.068435 -0.541962 10.812783 0.000001 0.000000 0.000000 -0.424900 6.316986 28.493587 -0.717784 -0.467985 16.566776 -0.817801 -0.488624 19.171900 -0.000000 0.000000 -0.000000 -14.281100 14.006730 8.027563 20.150550 2.693212 4.101688 -3.209402 0.826395 -5.547891 -4.919088 0.000001 -0.000007 -0.000000 0.000000 -0.000000 0.489223 -10.085776 4.454146 8.999408 -10.363536 -3.281105 -5.730079 -1.918674 1.419130 -7.429976 0.000015 0.000006 0.000002 0.000001 0.000001 
0.598407 77.076698 2.000449 -3.611015 -4.801700 -2.173453 3.285479 1.527463 1.568576 1.135779 0.319331 1.368501 1.114624 0.344345 1.366884 5.404327 0.003885 0.414215 -7.816278 1.602060 -0.096107 -0.000000 -0.000000 -0.000000 1.046375 -17.425686 -11.913849 6.173507 -17.678036 -63.018658 -0.240114 -3.958212 -6.029170 -26.914601 4.016543 -10.090560 1.817690 12.961557 6.066995 8.091805 13.168375 9.835034 -18.409298 -4.359082 11.216109 -0.000001 -0.000001 -0.000003 0.472420 -10.887312 -1.798738 -0.678269 1.193262 -17.576964 -0.536653 0.666825 -12.320872 0.000000 0.000000 0.000002 -0.313305 -6.058636 -14.135868 -0.225559 1.152398 -15.683586 -0.221321 1.091050 -17.788668 0.000000 0.000000 0.000003 -0.118888 -4.749942 -23.889198 -0.117235 1.239749 -18.852451 0.003899 0.995244 -10.441713 -0.000000 -0.000000 -0.000000 0.160239 -2.707567 -28.819386 -0.084802 1.128223 -17.933109 -0.082204 1.094639 -20.394810 -0.000000 -0.000000 0.000000 1.206388 15.286008 14.188613 14.852081 24.905580 52.359315 -0.681276 8.441287 6.070563 -13.537370 -6.411315 9.692400 1.256941 -10.518346 -4.844276 8.985711 -19.343581 -9.600697 -19.995304 8.717992 -13.191445 -0.000000 0.000004 0.000002 0.085910 9.292997 3.057947 -0.021087 -0.603396 21.180849 -0.101756 -0.351355 20.226606 -0.000003 0.000001 0.000001 -0.375056 7.662163 17.029361 -0.384350 -0.466502 14.210566 -0.531828 -0.551032 21.194075 -0.000000 0.000000 -0.000002 -0.100767 5.459270 19.426725 0.058290 -0.607436 24.277257 0.077750 -0.574119 12.171920 -0.000000 0.000001 -0.000001 -0.425045 6.300502 28.994874 -0.760126 -0.501937 17.652173 -0.861111 -0.526706 20.323230 0.000000 0.000000 -0.000000 -14.174565 14.109000 7.741316 19.960881 2.625989 4.095835 -3.101483 0.699479 -5.565049 -4.939195 0.000001 -0.000006 0.000000 -0.000001 -0.000000 -0.473558 -10.061827 4.046099 11.277791 -10.473281 -3.268477 -7.091638 -2.228671 1.647777 -7.479459 0.000004 0.000010 0.000002 0.000002 0.000000 
